<?xml version="1.0" encoding="utf-8"?>
<!-- Generator: Adobe Illustrator 16.0.0, SVG Export Plug-In . SVG Version: 6.00 Build 0)  -->
<!DOCTYPE svg PUBLIC "-//W3C//DTD SVG 1.1//EN" "http://www.w3.org/Graphics/SVG/1.1/DTD/svg11.dtd">
<svg version="1.1" id="图层_1" xmlns="http://www.w3.org/2000/svg" xmlns:xlink="http://www.w3.org/1999/xlink" x="100px" y="100px"
	 width="562.206px" height="510px" viewBox="0 0 562.206 510" enable-background="new 0 0 562.206 510" xml:space="preserve">
<g display="none">
	
		<image display="inline" overflow="visible" width="421" height="457" id="_x35_IV25z_1_" xlink:href="6B79B36DD9FAFF03.jpg"  transform="matrix(1.0581 0 0 1.0581 68.7681 6.334)">
	</image>
</g>
<g>
	<g>
		
			<rect x="159.019" y="141.069" opacity="0.2" fill-rule="evenodd" clip-rule="evenodd" fill="#FDFDFE" width="247.105" height="247.11"/>
		<rect x="172.376" y="154.428" fill-rule="evenodd" clip-rule="evenodd" fill="#456883" width="220.391" height="220.392"/>
		<g>
			<path fill-rule="evenodd" clip-rule="evenodd" fill="#091C2F" d="M140.738,124.287c10.613-10.613,18.214-41.739,50.84-35.832
				c32.625,5.906,51.913,23.544,72.65,56.158c7.139,11.227,10.672,26.148,11.872,41.252c2.287,28.773-19.631,54.153-19.631,54.153
				s-23.54,21.63-51.081,20.226c-16.525-0.843-32.93-4.41-44.325-12.466c-30.387-21.482-50.711-45.108-56.105-73.388
				C99.029,143.308,130.298,134.728,140.738,124.287z"/>
			<g>
				<g>
					<path fill-rule="evenodd" clip-rule="evenodd" fill="#47637E" d="M261.006,164.714l-49.232-50.856l-17.058,2.238l-26.72,26.72
						l96.433,96.432l10.216-10.216l3.716-33.744L261.006,164.714z M133.854,176.957l-2.945,17.765l52.159,47.29l29.979,18.59
						l33.744-3.716l10.216-10.216l-96.433-96.432L133.854,176.957z"/>
				</g>
				<g>
					<path fill="none" stroke="#4B6D8C" stroke-miterlimit="10" d="M261.006,164.714l-49.232-50.856l-17.058,2.238l-26.72,26.72
						l96.433,96.432l10.216-10.216l3.716-33.744L261.006,164.714z M133.854,176.957l-2.945,17.765l52.159,47.29l29.979,18.59
						l33.744-3.716l10.216-10.216l-96.433-96.432L133.854,176.957z"/>
				</g>
			</g>
			<g>
				<g>
					<g enable-background="new    ">
						<g>
							<polygon fill="#8E252C" points="221.925,206.459 219.312,209.076 199.449,228.885 202.062,226.268 							"/>
						</g>
						<g>
							<polygon fill="#8D252C" points="202.062,226.268 199.449,228.885 185.001,227.105 187.614,224.489 							"/>
						</g>
						<g>
							<polygon fill="#D14149" points="166.329,151.248 221.925,206.459 202.062,226.268 187.614,224.489 140.166,177.357 							
								"/>
						</g>
						<g>
							<polygon fill="#8D252C" points="187.614,224.489 185.001,227.105 137.552,179.974 140.166,177.357 							"/>
						</g>
					</g>
				</g>
			</g>
			<g enable-background="new    ">
				<g>
					<g enable-background="new    ">
						<g>
							<polygon fill="#2A3D51" points="158.937,126.611 156.324,129.228 150.475,123.421 153.088,120.805 							"/>
						</g>
						<g>
							<polygon fill="#2A3D51" points="149.633,135.94 147.02,138.557 156.324,129.228 158.937,126.611 							"/>
						</g>
						<g>
							<path fill="#455E78" d="M192.714,97.949l2.961,14.048l-59.721,59.885l-14.101-2.885c1.92-10.975,9.764-25.237,21.967-38.827
								l5.813,5.77l9.304-9.329l-5.849-5.807C166.876,108.142,181.485,99.954,192.714,97.949z"/>
						</g>
						<g>
							<polygon fill="#2A3D51" points="135.954,171.882 133.34,174.499 119.239,171.614 121.853,168.997 							"/>
						</g>
						<g enable-background="new    ">
							<defs>
								<path id="SVGID_1_" enable-background="new    " d="M121.853,168.997l-2.613,2.617c1.92-10.974,9.764-25.237,21.967-38.827
									l2.613-2.617C131.616,143.76,123.773,158.022,121.853,168.997z"/>
							</defs>
							<clipPath id="SVGID_2_">
								<use xlink:href="#SVGID_1_"  overflow="visible"/>
							</clipPath>
							<g clip-path="url(#SVGID_2_)" enable-background="new    ">
								<path fill="#2B3F54" d="M121.853,168.997l-2.613,2.617c1.92-10.974,9.764-25.237,21.967-38.827l2.613-2.617
									C131.616,143.76,123.773,158.022,121.853,168.997"/>
							</g>
						</g>
					</g>
				</g>
			</g>
			<g>
				<g>
					<g enable-background="new    ">
						<g>
							<polygon fill="#D14149" points="221.351,207.679 223.323,209.647 203.578,229.447 201.596,227.488 							"/>
						</g>
						<g>
							<polygon fill="#8D252C" points="203.578,229.447 202.01,231.017 200.028,229.058 201.596,227.488 							"/>
						</g>
						<g>
							<polygon fill="#8D252C" points="201.596,227.488 200.028,229.058 219.782,209.249 221.351,207.679 							"/>
						</g>
					</g>
				</g>
			</g>
			<g>
				<g>
					<g enable-background="new    ">
						<g>
							<polygon fill="#8D252C" points="173.362,144.35 170.749,146.967 196.786,120.731 199.399,118.115 							"/>
						</g>
						<g>
							<polygon fill="#D14149" points="199.399,118.115 246.66,165.435 248.479,179.878 228.726,199.795 173.362,144.35 							"/>
						</g>
						<g>
							<polygon fill="#8D252C" points="228.726,199.795 226.112,202.412 170.749,146.967 173.362,144.35 							"/>
						</g>
					</g>
				</g>
			</g>
			<g>
				<g>
					<g enable-background="new    ">
						<g>
							<polygon fill="#8D252C" points="228.182,200.974 226.614,202.544 246.358,182.744 247.927,181.174 							"/>
						</g>
						<g>
							<polygon fill="#D14149" points="247.927,181.174 249.9,183.142 230.146,202.951 228.182,200.974 							"/>
						</g>
						<g>
							<polygon fill="#8D252C" points="230.146,202.951 228.578,204.521 226.614,202.544 228.182,200.974 							"/>
						</g>
					</g>
				</g>
			</g>
		</g>
		<g>
			<path fill-rule="evenodd" clip-rule="evenodd" fill="#091C2F" d="M421.983,400.939c-10.612,10.612-18.214,41.739-50.841,35.831
				c-32.625-5.906-51.912-23.544-72.65-56.158c-7.139-11.227-10.672-26.148-11.872-41.253
				c-2.286-28.772,19.631-54.152,19.631-54.152s23.541-21.63,51.082-20.226c16.524,0.842,32.929,4.41,44.324,12.465
				c30.388,21.483,50.711,45.109,56.105,73.389C463.692,381.919,432.424,390.499,421.983,400.939z"/>
			<g>
				<g>
					<path fill-rule="evenodd" clip-rule="evenodd" fill="#47637E" d="M288.077,296.194l-3.717,33.743l17.354,30.574l49.232,50.856
						l17.058-2.238l26.72-26.72l-96.432-96.432L288.077,296.194z M379.652,283.214l-29.979-18.59l-33.743,3.716l-10.216,10.216
						l96.432,96.432l26.72-26.72l2.945-17.765L379.652,283.214z"/>
				</g>
				<g>
					<path fill="none" stroke="#4B6D8C" stroke-miterlimit="10" d="M288.077,296.194l-3.717,33.743l17.354,30.574l49.232,50.856
						l17.058-2.238l26.72-26.72l-96.432-96.432L288.077,296.194z M379.652,283.214l-29.979-18.59l-33.743,3.716l-10.216,10.216
						l96.432,96.432l26.72-26.72l2.945-17.765L379.652,283.214z"/>
				</g>
			</g>
			<g enable-background="new    ">
				<g>
					<g enable-background="new    ">
						<g>
							<polygon fill="#2A3D51" points="421.518,392.436 418.904,395.052 413.092,389.291 415.705,386.675 							"/>
						</g>
						<g>
							<polygon fill="#2A3D51" points="369.664,410.617 367.051,413.234 426.771,353.341 429.385,350.724 							"/>
						</g>
						<g>
							<path fill="#455E78" d="M429.385,350.724l14.092,2.885c-1.911,10.983-9.755,25.237-21.959,38.827l-5.812-5.761l-9.303,9.319
								l5.849,5.806c-13.788,12.673-28.398,20.852-39.627,22.865l-2.96-14.048L429.385,350.724z"/>
						</g>
						<g enable-background="new    ">
							<defs>
								<path id="SVGID_3_" enable-background="new    " d="M412.251,401.8l-2.613,2.617
									c-13.788,12.673-28.398,20.852-39.627,22.865l2.613-2.617C383.853,422.651,398.463,414.473,412.251,401.8z"/>
							</defs>
							<clipPath id="SVGID_4_">
								<use xlink:href="#SVGID_3_"  overflow="visible"/>
							</clipPath>
							<g clip-path="url(#SVGID_4_)" enable-background="new    ">
								<path fill="#2B3F54" d="M412.251,401.8l-2.613,2.617c-13.788,12.673-28.398,20.852-39.627,22.865l2.613-2.617
									C383.853,422.651,398.463,414.473,412.251,401.8"/>
							</g>
						</g>
						<g>
							<polygon fill="#2A3D51" points="372.624,424.665 370.011,427.282 367.051,413.234 369.664,410.617 							"/>
						</g>
					</g>
				</g>
			</g>
			<g>
				<g>
					<g enable-background="new    ">
						<g>
							<polygon fill="#8D252C" points="428.396,341.984 426.828,343.555 400.764,369.618 402.332,368.048 							"/>
						</g>
						<g>
							<polygon fill="#8E252C" points="364.143,295.431 362.574,297.001 345.104,314.479 346.673,312.909 							"/>
						</g>
						<g>
							<polygon fill="#C33C44" points="366.445,293.127 380.885,294.907 428.396,341.984 402.332,368.048 346.673,312.909 
								364.143,295.431 							"/>
						</g>
						<g>
							<polygon fill="#8D252C" points="402.332,368.048 400.764,369.618 345.104,314.479 346.673,312.909 							"/>
						</g>
						<g>
							<polygon fill="#8D252C" points="344.381,315.215 342.813,316.785 345.104,314.479 346.673,312.909 							"/>
						</g>
						<g>
							<polygon fill="#D14149" points="361.754,293.055 364.143,295.431 346.673,312.909 344.381,315.215 342.008,312.855 							
								"/>
						</g>
						<g>
							<polygon fill="#8D252C" points="342.008,312.855 340.439,314.426 360.186,294.625 361.754,293.055 							"/>
						</g>
						<g>
							<polygon fill="#8D252C" points="344.074,315.524 344.381,315.215 342.813,316.785 342.506,317.095 							"/>
						</g>
						<g>
							<polygon fill="#8D252C" points="344.381,315.215 342.813,316.785 340.439,314.426 342.008,312.855 							"/>
						</g>
						<g>
							<polygon fill="#8D252C" points="425.798,344.6 424.229,346.17 398.165,372.233 399.732,370.664 							"/>
						</g>
						<g>
							<polygon fill="#8D252C" points="399.732,370.664 398.165,372.233 400.764,369.618 402.332,368.048 							"/>
						</g>
						<g>
							<polygon fill="#8E252C" points="428.396,341.984 425.798,344.6 399.732,370.664 402.332,368.048 							"/>
						</g>
						<g>
							<polygon fill="#8D252C" points="346.673,312.909 402.332,368.048 399.732,370.664 344.074,315.524 344.381,315.215 							
								"/>
						</g>
						<g>
							<polygon fill="#8D252C" points="399.732,370.664 398.165,372.233 342.506,317.095 344.074,315.524 							"/>
						</g>
					</g>
				</g>
			</g>
			<g>
				<g>
					<g enable-background="new    ">
						<g>
							<polygon fill="#8D252C" points="314.393,340.51 312.824,342.079 332.57,322.28 334.139,320.71 							"/>
						</g>
						<g>
							<polygon fill="#D14149" points="334.139,320.71 336.111,322.679 316.357,342.487 314.393,340.51 							"/>
						</g>
						<g>
							<polygon fill="#8D252C" points="316.357,342.487 314.789,344.058 312.824,342.079 314.393,340.51 							"/>
						</g>
					</g>
				</g>
			</g>
			<g>
				<g>
					<g enable-background="new    ">
						<g>
							<polygon fill="#915309" points="316.85,342.728 314.236,345.344 333.99,325.437 336.604,322.82 							"/>
						</g>
						<g>
							<polygon fill="#915309" points="318.678,357.179 316.064,359.796 314.236,345.344 316.85,342.728 							"/>
						</g>
						<g>
							<polygon fill="#D88023" points="336.604,322.82 391.976,378.256 365.939,404.5 318.678,357.179 316.85,342.728 							"/>
						</g>
						<g>
							<polygon fill="#915309" points="365.939,404.5 363.326,407.116 316.064,359.796 318.678,357.179 							"/>
						</g>
					</g>
				</g>
			</g>
			<g>
				<g>
					<polygon fill="#E0474F" points="384.322,348.111 328.809,292.819 348.747,272.983 363.212,274.768 410.601,321.969 					"/>
				</g>
			</g>
			<g>
				<polygon fill="#E0474F" points="375.299,357.133 320.008,301.62 300.173,321.559 301.956,336.023 349.158,383.413 				"/>
			</g>
		</g>
		<g>
			<path fill-rule="evenodd" clip-rule="evenodd" fill="#091C2F" d="M419.803,122.668c10.613,10.613,41.748,18.223,35.841,50.848
				c-5.905,32.626-23.544,51.914-56.158,72.651c-11.227,7.139-26.147,10.671-41.253,11.872
				c-28.781,2.278-54.161-19.639-54.161-19.639s-21.631-23.541-20.226-51.082c0.842-16.524,4.409-32.929,12.466-44.325
				c21.482-30.388,45.107-50.711,73.388-56.105C400.782,80.959,409.363,112.228,419.803,122.668z"/>
			<g>
				<g>
					<path fill-rule="evenodd" clip-rule="evenodd" fill="#47637E" d="M367.133,115.785l-17.765-2.945L302.078,165l-18.589,29.978
						l3.716,33.744l10.216,10.216l96.432-96.432L367.133,115.785z M428.003,176.655l-26.729-26.728l-96.433,96.432l10.217,10.216
						l33.752,3.724l30.574-17.354l50.856-49.231L428.003,176.655z"/>
				</g>
				<g>
					<path fill="none" stroke="#4B6D8C" stroke-miterlimit="10" d="M367.133,115.785l-17.765-2.945L302.078,165l-18.589,29.978
						l3.716,33.744l10.216,10.216l96.432-96.432L367.133,115.785z M428.003,176.655l-26.729-26.728l-96.433,96.432l10.217,10.216
						l33.752,3.724l30.574-17.354l50.856-49.231L428.003,176.655z"/>
				</g>
			</g>
			<g>
				<g>
					<g enable-background="new    ">
						<g>
							<polygon fill="#4E3C68" points="317.849,165.065 315.235,167.682 362.246,120.362 364.859,117.746 							"/>
						</g>
						<g>
							<polygon fill="#4E3C68" points="316.109,179.509 313.496,182.126 315.235,167.682 317.849,165.065 							"/>
						</g>
						<g>
							<polygon fill="#765F98" points="364.859,117.746 391.032,143.98 335.974,199.426 316.109,179.509 317.849,165.065 							"/>
						</g>
						<g>
							<polygon fill="#4E3C68" points="335.974,199.426 333.36,202.042 313.496,182.126 316.109,179.509 							"/>
						</g>
					</g>
				</g>
			</g>
			<g enable-background="new    ">
				<g>
					<g>
						<g enable-background="new    ">
							<g>
								<polygon fill="#2A3D51" points="417.474,138.272 414.86,140.889 420.65,135.056 423.264,132.439 								"/>
							</g>
							<g>
								<polygon fill="#2A3D51" points="446.246,172.138 443.633,174.755 429.594,177.676 432.207,175.059 								"/>
							</g>
							<g>
								<path fill="#455E78" d="M374.986,101.081c10.988,1.942,25.264,9.824,38.887,22.065l-5.745,5.797l9.346,9.33l5.79-5.833
									c12.71,13.823,20.938,28.464,22.982,39.699l-14.039,2.92l-60.067-59.894L374.986,101.081z"/>
							</g>
							<g>
								<polygon fill="#2A3D51" points="432.207,175.059 429.594,177.676 369.526,117.782 372.14,115.165 								"/>
							</g>
							<g>
								<polygon fill="#2A3D51" points="372.14,115.165 369.526,117.782 372.373,103.698 374.986,101.081 								"/>
							</g>
						</g>
					</g>
				</g>
			</g>
			<g>
				<g>
					<g enable-background="new    ">
						<g>
							<polygon fill="#765F98" points="315.515,180.877 335.369,200.677 333.415,202.654 313.552,182.845 							"/>
						</g>
						<g>
							
								<rect x="321.59" y="179.509" transform="matrix(0.7068 -0.7074 0.7074 0.7068 -42.2906 285.0386)" fill="#4E3C68" width="2.219" height="28.052"/>
						</g>
						<g>
							<polygon fill="#4E3C68" points="313.552,182.845 311.984,184.416 313.946,182.447 315.515,180.877 							"/>
						</g>
					</g>
				</g>
			</g>
			<g>
				<g>
					<g enable-background="new    ">
						<g>
							<polygon fill="#26798B" points="424.121,176.997 421.508,179.614 374.308,226.745 376.92,224.128 							"/>
						</g>
						<g>
							<polygon fill="#26798B" points="376.92,224.128 374.308,226.745 359.86,228.516 362.474,225.899 							"/>
						</g>
						<g>
							<polygon fill="#45B1CB" points="397.796,150.879 424.121,176.997 376.92,224.128 362.474,225.899 342.511,206.09 							"/>
						</g>
						<g>
							<polygon fill="#26798B" points="362.474,225.899 359.86,228.516 339.897,208.707 342.511,206.09 							"/>
						</g>
					</g>
				</g>
			</g>
			<g>
				<g>
					<g enable-background="new    ">
						<g>
							<polygon fill="#26798B" points="361.811,227.19 360.242,228.761 358.279,230.72 359.848,229.15 							"/>
						</g>
						<g>
							<polygon fill="#45B1CB" points="341.957,207.382 361.811,227.19 359.848,229.15 339.984,209.35 							"/>
						</g>
						<g>
							
								<rect x="348.022" y="206.012" transform="matrix(0.7068 -0.7074 0.7074 0.7068 -53.2875 311.5082)" fill="#26798B" width="2.219" height="28.046"/>
						</g>
					</g>
				</g>
			</g>
		</g>
		<g>
			<path fill-rule="evenodd" clip-rule="evenodd" fill="#091C2F" d="M143.367,404.13c-10.613-10.613-41.739-18.215-35.831-50.841
				c5.906-32.626,23.544-51.912,56.159-72.651c11.227-7.139,26.147-10.671,41.252-11.872c28.772-2.286,54.152,19.631,54.152,19.631
				s21.631,23.54,20.23,51.086c-0.843,16.524-4.409,32.93-12.465,44.324c-21.482,30.388-45.109,50.711-73.389,56.106
				C162.392,445.843,153.807,414.569,143.367,404.13z"/>
			<g>
				<g>
					<path fill-rule="evenodd" clip-rule="evenodd" fill="#47637E" d="M248.112,270.223l-33.744-3.716l-30.574,17.354
						l-50.856,49.232l2.239,17.058l26.719,26.72l96.433-96.432L248.112,270.223z M275.965,298.077l-10.216-10.216l-96.432,96.432
						l26.724,26.724l17.765,2.945l47.29-52.159l18.59-29.979L275.965,298.077z"/>
				</g>
				<g>
					<path fill="none" stroke="#4B6D8C" stroke-miterlimit="10" d="M248.112,270.223l-33.744-3.716l-30.574,17.354l-50.856,49.232
						l2.239,17.058l26.719,26.72l96.433-96.432L248.112,270.223z M275.965,298.077l-10.216-10.216l-96.432,96.432l26.724,26.724
						l17.765,2.945l47.29-52.159l18.59-29.979L275.965,298.077z"/>
				</g>
			</g>
			<g enable-background="new    ">
				<g>
					<g>
						<g enable-background="new    ">
							<g>
								<polygon fill="#1C7442" points="230.317,322.214 250.18,342.014 248.227,343.991 228.363,324.183 								"/>
							</g>
							<g>
								
									<rect x="236.401" y="320.845" transform="matrix(0.7067 -0.7075 0.7075 0.7067 -167.2675 266.2789)" fill="#044F28" width="2.219" height="28.053"/>
							</g>
							<g>
								<polygon fill="#044F28" points="228.363,324.183 226.795,325.752 228.749,323.784 230.317,322.214 								"/>
							</g>
						</g>
					</g>
				</g>
				<g>
					<g>
						<g enable-background="new    ">
							<g>
								<polygon fill="#044F28" points="173.484,379.427 170.871,382.043 225.93,326.607 228.543,323.991 								"/>
							</g>
							<g>
								<polygon fill="#1C7442" points="228.543,323.991 248.407,343.907 246.675,358.351 199.666,405.68 173.484,379.427 								
									"/>
							</g>
							<g>
								<polygon fill="#044F28" points="199.666,405.68 197.053,408.296 170.871,382.043 173.484,379.427 								"/>
							</g>
						</g>
					</g>
				</g>
			</g>
			<g>
				<g>
					<g enable-background="new    ">
						<g>
							<polygon fill="#DCB71C" points="202.275,295.016 222.905,315.579 220.941,317.547 200.312,296.975 							"/>
						</g>
						<g>
							
								<rect x="208.734" y="293.479" transform="matrix(0.7064 -0.7078 0.7078 0.7064 -156.4243 238.9481)" fill="#947A04" width="2.219" height="29.134"/>
						</g>
					</g>
				</g>
			</g>
			<g>
				<g>
					<g enable-background="new    ">
						<g>
							<polygon fill="#947A04" points="221.441,316.245 218.828,318.862 163.543,374.082 166.156,371.465 							"/>
						</g>
						<g>
							<polygon fill="#DCB71C" points="201.47,296.445 221.441,316.245 166.156,371.465 139.832,345.355 187.031,298.225 							"/>
						</g>
						<g>
							<polygon fill="#947A04" points="166.156,371.465 163.543,374.082 137.219,347.973 139.832,345.355 							"/>
						</g>
					</g>
				</g>
			</g>
			<g>
				<g>
					<g enable-background="new    ">
						<g>
							<polygon fill="#2A3D51" points="157.66,395.236 155.047,397.854 145.692,388.524 148.305,385.908 							"/>
						</g>
						<g enable-background="new    ">
							<defs>
								<path id="SVGID_5_" enable-background="new    " d="M190.803,423.107l-2.613,2.617c-10.988-1.94-25.273-9.832-38.897-22.073
									l2.613-2.617C165.529,413.275,179.814,421.167,190.803,423.107z"/>
							</defs>
							<clipPath id="SVGID_6_">
								<use xlink:href="#SVGID_5_"  overflow="visible"/>
							</clipPath>
							<g clip-path="url(#SVGID_6_)" enable-background="new    ">
								<path fill="#2B3F54" d="M190.803,423.107l-2.613,2.617c-10.988-1.94-25.273-9.832-38.897-22.073l2.613-2.617
									C165.529,413.275,179.814,421.167,190.803,423.107"/>
							</g>
						</g>
						<g>
							<polygon fill="#2A3D51" points="151.906,401.034 149.292,403.651 155.047,397.854 157.66,395.236 							"/>
						</g>
						<g>
							<path fill="#455E78" d="M133.591,349.13l60.058,59.886l-2.846,14.092c-10.988-1.94-25.273-9.832-38.897-22.073l5.754-5.798
								l-9.355-9.328l-5.79,5.832c-12.701-13.822-20.929-28.455-22.964-39.689L133.591,349.13z"/>
						</g>
						<g enable-background="new    ">
							<defs>
								<path id="SVGID_7_" enable-background="new    " d="M142.515,391.74l-2.613,2.617
									c-12.701-13.823-20.929-28.455-22.964-39.689l2.613-2.617C121.586,363.285,129.814,377.918,142.515,391.74z"/>
							</defs>
							<clipPath id="SVGID_8_">
								<use xlink:href="#SVGID_7_"  overflow="visible"/>
							</clipPath>
							<g clip-path="url(#SVGID_8_)" enable-background="new    ">
								<path fill="#2B3F54" d="M142.515,391.74l-2.613,2.617c-12.701-13.823-20.929-28.455-22.964-39.689l2.613-2.617
									C121.586,363.285,129.814,377.918,142.515,391.74"/>
							</g>
						</g>
					</g>
				</g>
			</g>
			
				<rect x="148.569" y="329.519" transform="matrix(0.7071 -0.7071 0.7071 0.7071 -198.335 217.382)" fill="#1E7845" width="29.334" height="37.167"/>
		</g>
		<g>
			<g>
				<path fill-rule="evenodd" clip-rule="evenodd" fill="#061A2E" stroke="#486A88" stroke-miterlimit="10" d="M289.449,235.196
					v-44.845l-15.299,0.001l0.001,44.89C279.152,233.875,284.441,233.86,289.449,235.196z"/>
				<path fill-rule="evenodd" clip-rule="evenodd" fill="#061A2E" stroke="#486A88" stroke-miterlimit="10" d="M253.75,255.455
					l-44.701,0v15.298h44.516C252.275,265.736,252.337,260.446,253.75,255.455z"/>
				<path fill-rule="evenodd" clip-rule="evenodd" fill="#061A2E" stroke="#486A88" stroke-miterlimit="10" d="M274.152,291.653
					v44.204l15.299-0.001v-44.158C284.443,293.034,279.153,293.02,274.152,291.653z"/>
				<path fill-rule="evenodd" clip-rule="evenodd" fill="#061A2E" stroke="#486A88" stroke-miterlimit="10" d="M310.021,255.454
					c1.412,4.991,1.475,10.281,0.186,15.298l44.347,0l-0.001-15.299L310.021,255.454z"/>
			</g>
			<path fill-rule="evenodd" clip-rule="evenodd" fill="#061A2E" stroke="#486A88" stroke-miterlimit="10" d="M183.962,283.552
				l-0.004-40.897l25.173,12.79v15.319L183.962,283.552z"/>
			<path fill-rule="evenodd" clip-rule="evenodd" fill="#061A2E" stroke="#486A88" stroke-miterlimit="10" d="M379.64,242.655
				l0.005,40.897l-25.173-12.79v-15.319L379.64,242.655z"/>
			<path fill-rule="evenodd" clip-rule="evenodd" fill="#061A2E" stroke="#486A88" stroke-miterlimit="10" d="M261.352,165.265
				l40.898-0.004l-12.791,25.172l-15.318,0L261.352,165.265z"/>
			<path fill-rule="evenodd" clip-rule="evenodd" fill="#061A2E" stroke="#486A88" stroke-miterlimit="10" d="M302.249,360.943
				l-40.896,0.004l12.79-25.174l15.32,0.001L302.249,360.943z"/>
		</g>
		<g>
			<g>
				<g enable-background="new    ">
					<g enable-background="new    ">
						<defs>
							<path id="SVGID_9_" enable-background="new    " d="M301.967,280.164l-3.355,3.406c10.091-10.093,10.058-26.488-0.073-36.634
								c-5.07-5.068-11.704-7.613-18.334-7.631c-6.629-0.017-13.253,2.494-18.303,7.536l3.355-3.406
								c5.05-5.042,11.675-7.552,18.303-7.535c6.63,0.017,13.265,2.562,18.334,7.63C312.025,253.675,312.058,270.07,301.967,280.164
								z"/>
						</defs>
						<clipPath id="SVGID_10_">
							<use xlink:href="#SVGID_9_"  overflow="visible"/>
						</clipPath>
						<g clip-path="url(#SVGID_10_)" enable-background="new    ">
							<path fill="#406F8E" d="M301.967,280.164l-3.355,3.406c10.091-10.093,10.058-26.488-0.073-36.634
								c-5.07-5.068-11.704-7.613-18.334-7.631c-6.629-0.017-13.253,2.494-18.303,7.536l3.355-3.406
								c5.05-5.042,11.675-7.552,18.303-7.535c6.63,0.017,13.265,2.562,18.334,7.63C312.025,253.675,312.058,270.07,301.967,280.164
								"/>
						</g>
					</g>
					<g>
						<path fill="#62A0CB" d="M315.301,230.141c17.563,17.572,17.611,45.991,0.117,63.481c-8.753,8.747-20.233,13.101-31.726,13.071
							c-11.486-0.03-22.985-4.443-31.769-13.227c-17.564-17.582-17.621-46.01-0.127-63.491c8.751-8.746,20.233-13.1,31.725-13.069
							C295.015,216.936,306.515,221.35,315.301,230.141z M301.967,280.164c10.091-10.093,10.059-26.489-0.073-36.634
							c-5.069-5.068-11.704-7.613-18.334-7.63c-6.628-0.017-13.253,2.493-18.303,7.535c-10.091,10.093-10.058,26.489,0.073,36.634
							c5.07,5.069,11.704,7.613,18.333,7.631C290.293,287.716,296.917,285.206,301.967,280.164"/>
					</g>
					<g enable-background="new    ">
						<defs>
							<path id="SVGID_11_" enable-background="new    " d="M315.418,293.622l-3.355,3.406
								c-8.754,8.747-20.233,13.101-31.726,13.071c-11.487-0.03-22.985-4.443-31.77-13.227c-17.563-17.582-17.62-46.01-0.126-63.491
								l3.355-3.406c-17.494,17.481-17.438,45.909,0.127,63.491c8.783,8.783,20.282,13.196,31.769,13.227
								C295.185,306.723,306.665,302.369,315.418,293.622z"/>
						</defs>
						<clipPath id="SVGID_12_">
							<use xlink:href="#SVGID_11_"  overflow="visible"/>
						</clipPath>
						<g clip-path="url(#SVGID_12_)" enable-background="new    ">
							<path fill="#406F8E" d="M315.418,293.622l-3.355,3.406c-8.754,8.747-20.233,13.101-31.726,13.071
								c-11.487-0.03-22.985-4.443-31.77-13.227c-17.563-17.582-17.62-46.01-0.126-63.491l3.355-3.406
								c-17.494,17.481-17.438,45.909,0.127,63.491c8.783,8.783,20.282,13.196,31.769,13.227
								C295.185,306.723,306.665,302.369,315.418,293.622"/>
						</g>
					</g>
				</g>
			</g>
		</g>
	</g>
	
		<text transform="matrix(0.7071 -0.7071 0.7071 0.7071 161.8438 179.7251)" fill="#FFFFFF" font-family="'MicrosoftYaHei'" font-size="12">4</text>
	
		<text transform="matrix(0.7071 -0.7071 0.7071 0.7071 194.3711 147.1978)" fill="#FFFFFF" font-family="'MicrosoftYaHei'" font-size="12">3</text>
	
		<text transform="matrix(0.7071 0.7071 -0.7071 0.7071 358.3516 141.627)" fill="#FFFFFF" font-family="'MicrosoftYaHei'" font-size="12">2</text>
	
		<text transform="matrix(0.7071 0.7071 -0.7071 0.7071 390.8789 174.1543)" fill="#FFFFFF" font-family="'MicrosoftYaHei'" font-size="12">1</text>
	
		<text transform="matrix(0.7071 0.7071 -0.7071 0.7071 396.666 343.9629)" fill="#FFFFFF" font-family="'MicrosoftYaHei'" font-size="12">8.1</text>
	
		<text transform="matrix(0.7071 0.7071 -0.7071 0.7071 360.6035 380.0254)" fill="#FFFFFF" font-family="'MicrosoftYaHei'" font-size="12">7.1</text>
	
		<text transform="matrix(0.7071 0.7071 -0.7071 0.7071 377.1094 318.71)" fill="#FFFFFF" font-family="'MicrosoftYaHei'" font-size="12">8.2</text>
	
		<text transform="matrix(0.7071 0.7071 -0.7071 0.7071 341.0469 354.7725)" fill="#FFFFFF" font-family="'MicrosoftYaHei'" font-size="12">7.2</text>
	
		<text transform="matrix(0.7071 0.7071 -0.7071 0.7071 187.8184 377.8887)" fill="#FFFFFF" font-family="'MicrosoftYaHei'" font-size="12">6.1</text>
	
		<text transform="matrix(0.7071 0.7071 -0.7071 0.7071 151.7563 341.8262)" fill="#FFFFFF" font-family="'MicrosoftYaHei'" font-size="12">5.1</text>
</g>
</svg>
