<?xml version="1.0" encoding="utf-8"?>
<!-- Generator: Adobe Illustrator 16.0.0, SVG Export Plug-In . SVG Version: 6.00 Build 0)  -->
<!DOCTYPE svg PUBLIC "-//W3C//DTD SVG 1.1//EN" "http://www.w3.org/Graphics/SVG/1.1/DTD/svg11.dtd">
<svg version="1.1" id="图层_1" xmlns="http://www.w3.org/2000/svg" xmlns:xlink="http://www.w3.org/1999/xlink" x="0px" y="0px"
	 width="562.206px" height="510px" viewBox="0 0 562.206 510" enable-background="new 0 0 562.206 510" xml:space="preserve">
<g>
	<path opacity="0.5" fill="#343434" d="M249.649,107.285c-1.119-1.436-2.662-1.037-4.296-0.196l-140.213,72.36
		c-1.628,0.84-2.74,1.811-1.708,3.29c1.038,1.48,1.863,2.624,1.863,2.624l0.188-0.097l103.439,11.569l10.935-5.531l31.573-81.35
		l0.193-0.099C251.623,109.856,250.771,108.726,249.649,107.285z"/>
	<polygon opacity="0.6" fill-rule="evenodd" clip-rule="evenodd" fill="#45607B" points="460.84,321.827 251.731,432.58 
		189.946,422.915 81.082,261.555 97.091,214.882 301.752,109.245 334.312,116.121 467.666,290.288 	"/>
	<g>
		<g>
			<defs>
				<path id="SVGID_1_" d="M322.743,158.222c-25.866,1.185-65.811-10.664-65.811-10.664l-110.424,62.677
					c0,0-22.221,10.347-21.605,17.889c1.895,23.166-7.424,44.371-23.652,59.227l72.453,104.334
					c10.417-5.347,22.325-8.656,35.126-9.291c30.126-1.504,66.448,4.124,82.076,25.556l125.674-64.428
					c-4.487-8.664-7.258-18.283-7.84-28.511c-1.421-24.745,10.19-47.424,29.327-62.26l-81.337-103.126
					C346.524,154.602,335.031,157.661,322.743,158.222z"/>
			</defs>
			<clipPath id="SVGID_2_">
				<use xlink:href="#SVGID_1_"  overflow="visible"/>
			</clipPath>
			<g opacity="0.6" clip-path="url(#SVGID_2_)">
				
					<polygon fill-rule="evenodd" clip-rule="evenodd" fill="none" stroke="#2EA7E0" stroke-width="0.5" stroke-miterlimit="10" points="
					482.85,309.541 214.548,450.491 64.819,234.897 318.191,100.759 				"/>
				
					<polygon fill-rule="evenodd" clip-rule="evenodd" fill="none" stroke="#2EA7E0" stroke-width="0.5" stroke-miterlimit="10" points="
					317.072,104.802 477.453,308.451 215.791,446.008 69.631,235.87 				"/>
				
					<polygon fill-rule="evenodd" clip-rule="evenodd" fill="none" stroke="#2EA7E0" stroke-width="0.5" stroke-miterlimit="10" points="
					315.952,108.845 472.057,307.36 217.033,441.523 74.443,236.843 				"/>
				
					<polygon fill-rule="evenodd" clip-rule="evenodd" fill="none" stroke="#2EA7E0" stroke-width="0.5" stroke-miterlimit="10" points="
					314.832,112.888 466.66,306.27 218.275,437.04 79.255,237.815 				"/>
				
					<polygon fill-rule="evenodd" clip-rule="evenodd" fill="none" stroke="#2EA7E0" stroke-width="0.5" stroke-miterlimit="10" points="
					461.265,305.18 219.518,432.557 84.068,238.788 313.713,116.931 				"/>
			</g>
		</g>
	</g>
	<g>
		<path fill-rule="evenodd" clip-rule="evenodd" fill="#032037" d="M58.285,220.744c4.854-12.725,4.722-38.798,36.652-49.053
			c32.124-10.314,58.224-6.361,94,7.98c12.613,5.056,24.031,14.639,33.537,25.619c18.564,21.436,12.09,52.508,12.09,52.508
			s-10.486,29.595-38.52,41.875c-16.801,7.357-34.961,12.29-50.527,10.896c-40.795-3.659-72-13.778-90.451-34.366
			C40.058,259.409,53.453,233.41,58.285,220.744z"/>
		<g>
			<g>
				<path fill-rule="evenodd" clip-rule="evenodd" fill="#47637E" d="M94.725,269.629l6.33,14.595l70.871,11.899l36.933,0.375
					l28.368-18.485l3.554-12.487l-136.004-27.609L94.725,269.629z M231.758,217.468l-31.642-14.36l-69.065-14.264l-13.636,9.197
					l-9.872,31.146l135.807,27.312l3.519-12.365L231.758,217.468z"/>
			</g>
			<g>
				<path fill="none" stroke="#4B6D8C" stroke-miterlimit="10" d="M94.725,269.629l6.33,14.595l70.871,11.899l36.933,0.375
					l28.368-18.485l3.554-12.487l-136.004-27.609L94.725,269.629z M231.758,217.468l-31.642-14.36l-69.065-14.264l-13.636,9.197
					l-9.872,31.146l135.807,27.312l3.519-12.365L231.758,217.468z"/>
			</g>
		</g>
		<g>
			<g enable-background="new    ">
				<g>
					<polygon fill="#8C7712" points="187.263,250.987 187.263,255.174 180.036,279.162 180.036,274.975 					"/>
				</g>
				<g>
					<polygon fill="#C2A626" points="187.587,251.49 190.395,252.047 183.276,276.009 180.468,275.424 					"/>
				</g>
				<g>
					<polygon fill="#8C7712" points="190.395,252.047 190.395,256.234 183.276,280.195 183.276,276.009 					"/>
				</g>
				<g>
					<polygon fill="#83700E" points="183.276,276.009 183.276,280.195 180.468,279.611 180.468,275.424 					"/>
				</g>
				<g>
					<polygon fill="#C2A626" points="109.872,235.465 187.263,250.987 180.036,274.975 166.185,280.26 99.945,266.526 					"/>
				</g>
				<g>
					<polygon fill="#83700E" points="180.036,274.975 180.036,279.162 166.185,284.446 166.185,280.26 					"/>
				</g>
				<g>
					<polygon fill="#83700E" points="166.185,280.26 166.185,284.446 99.945,270.713 99.945,266.526 					"/>
				</g>
			</g>
		</g>
		<g enable-background="new    ">
			<g>
				<g enable-background="new    ">
					<g>
						<polygon fill="#2A3D51" points="91.161,220.971 91.161,225.158 83.241,223.585 83.241,219.398 						"/>
					</g>
					<g>
						<polygon fill="#2D4156" points="115.803,194.089 115.803,198.276 93.447,268.622 93.447,264.436 						"/>
					</g>
					<g enable-background="new    ">
						<defs>
							<path id="SVGID_3_" enable-background="new    " d="M76.807,256.074v-4.187c0,6.541,0.963,12.286,2.825,16.782v4.187
								C77.77,268.36,76.807,262.614,76.807,256.074z"/>
						</defs>
						<clipPath id="SVGID_4_">
							<use xlink:href="#SVGID_3_"  overflow="visible"/>
						</clipPath>
						<g clip-path="url(#SVGID_4_)" enable-background="new    ">
							<path fill="#2B3F54" d="M79.632,268.668v4.187c-1.862-4.495-2.825-10.241-2.825-16.781v-4.187
								C76.807,258.427,77.77,264.173,79.632,268.668"/>
						</g>
					</g>
					<g>
						<path fill="#455D77" d="M106.317,185.452l9.486,8.637l-22.356,70.347l-13.815,4.233c-3.726-8.997-3.852-23,0.135-38.359
							l7.884,1.572l3.51-10.911l-7.92-1.573C88.992,204.173,97.614,191.859,106.317,185.452z"/>
					</g>
					<g>
						<polygon fill="#2A3D51" points="93.447,264.436 93.447,268.622 79.632,272.855 79.632,268.668 						"/>
					</g>
				</g>
			</g>
		</g>
		<g>
			<g enable-background="new    ">
				<g>
					<polygon fill="#C2A626" points="122.049,196.758 187.479,209.574 196.668,219.281 189.693,242.955 112.482,227.315 					"/>
				</g>
				<g>
					<polygon fill="#8C7712" points="196.668,219.281 196.668,223.468 189.693,247.141 189.693,242.955 					"/>
				</g>
				<g>
					<polygon fill="#83700E" points="189.693,242.955 189.693,247.141 112.482,231.502 112.482,227.315 					"/>
				</g>
				<g>
					<polygon fill="#C2A626" points="197.172,219.443 199.953,219.991 192.942,243.602 190.143,243.035 					"/>
				</g>
				<g>
					<polygon fill="#8C7712" points="199.953,219.991 199.953,224.178 192.942,247.788 192.942,243.602 					"/>
				</g>
				<g>
					<polygon fill="#83700E" points="192.942,243.602 192.942,247.788 190.143,247.222 190.143,243.035 					"/>
				</g>
			</g>
		</g>
	</g>
	<g>
		<path fill-rule="evenodd" clip-rule="evenodd" fill="#032037" d="M488.879,313.594c-3.502,14.33,3.402,49.105-42.199,58.806
			c-34.481,10.381-63.007,1.026-100.882-18.104c-12.827-6.479-24.215-17.793-33.438-30.222
			c-17.28-23.297-10.693-54.328-10.693-54.328s9.851-28.173,35.145-39.464c15.181-6.776,31.725-11.338,46.289-10.078
			c39.23,3.396,77.175,13.213,98.765,33.984C506.124,277.528,492.292,299.611,488.879,313.594z"/>
		<g>
			<g>
				<path fill-rule="evenodd" clip-rule="evenodd" fill="#47637E" d="M449.214,247.704l-76.641-11.552l-38.118-0.046l-28.372,18.506
					l-3.392,12.538l146.972,29.519l7.985-33.8L449.214,247.704z M296.789,288.963l16.174,28.135l34.178,16.073l77.461,17.533
					l14.68-10.089l8.142-34.465l-147.208-29.848L296.789,288.963z"/>
			</g>
			<g>
				<path fill="none" stroke="#4B6D8C" stroke-miterlimit="10" d="M449.214,247.704l-76.641-11.552l-38.118-0.046l-28.372,18.506
					l-3.392,12.538l146.972,29.519l7.985-33.8L449.214,247.704z M296.789,288.963l16.174,28.135l34.178,16.073l77.461,17.533
					l14.68-10.089l8.142-34.465l-147.208-29.848L296.789,288.963z"/>
			</g>
		</g>
		<g enable-background="new    ">
			<g>
				<g enable-background="new    ">
					<g enable-background="new    ">
						<defs>
							<path id="SVGID_5_" enable-background="new    " d="M479.868,285.733v4.187c0,4.798-0.411,9.879-1.267,15.128v-4.188
								C479.457,295.613,479.868,290.531,479.868,285.733z"/>
						</defs>
						<clipPath id="SVGID_6_">
							<use xlink:href="#SVGID_5_"  overflow="visible"/>
						</clipPath>
						<g clip-path="url(#SVGID_6_)" enable-background="new    ">
							<path fill="#30455A" d="M479.868,285.733v4.187c0,4.398-0.345,9.035-1.062,13.82v-4.187
								C479.523,294.769,479.868,290.131,479.868,285.733"/>
							<path fill="#2F4358" d="M478.807,299.554v4.187c-0.065,0.435-0.134,0.871-0.205,1.309v-4.188
								C478.673,300.425,478.741,299.988,478.807,299.554"/>
						</g>
					</g>
					<g>
						<polygon fill="#2A3D51" points="478.602,300.861 478.602,305.049 469.431,303.232 469.431,299.046 						"/>
					</g>
					<g>
						<polygon fill="#2E4257" points="469.431,299.046 469.431,303.232 466.65,315.213 466.65,311.026 						"/>
					</g>
					<g>
						<path fill="#455D77" d="M474.327,259.572c5.211,9.527,7.002,24.563,4.274,41.289l-9.171-1.815l-2.78,11.98l9.252,1.86
							c-4.869,16.97-13.446,30.765-22.815,37.874l-11.781-10.094l18.081-76.628L474.327,259.572z"/>
					</g>
					<g enable-background="new    ">
						<defs>
							<path id="SVGID_7_" enable-background="new    " d="M475.902,312.887v4.188c-4.869,16.969-13.446,30.765-22.815,37.874
								v-4.188C462.456,343.651,471.033,329.856,475.902,312.887z"/>
						</defs>
						<clipPath id="SVGID_8_">
							<use xlink:href="#SVGID_7_"  overflow="visible"/>
						</clipPath>
						<g clip-path="url(#SVGID_8_)" enable-background="new    ">
							<path fill="#2F4358" d="M475.902,312.887v4.188c-0.396,1.382-0.817,2.743-1.262,4.081v-4.187
								C475.085,315.63,475.506,314.27,475.902,312.887"/>
							<path fill="#2D4156" d="M474.641,316.969v4.187c-2.014,6.064-4.5,11.657-7.312,16.603v-4.187
								C470.141,328.626,472.627,323.033,474.641,316.969"/>
							<path fill="#2B3F54" d="M467.329,333.571v4.187c-4.187,7.359-9.095,13.284-14.242,17.19v-4.188
								C458.234,346.855,463.143,340.931,467.329,333.571"/>
						</g>
					</g>
					<g>
						<polygon fill="#2A3D51" points="453.087,350.761 453.087,354.948 441.306,344.854 441.306,340.667 						"/>
					</g>
				</g>
			</g>
		</g>
		<g>
			<g enable-background="new    ">
				<g>
					<polygon fill="#116431" points="365.527,251.532 365.527,255.719 359.442,279.023 359.442,274.836 					"/>
				</g>
				<g>
					<polygon fill="#0B5E2C" points="361.097,275.165 361.097,279.352 359.442,279.023 359.442,274.836 					"/>
				</g>
				<g>
					<polygon fill="#0B5E2C" points="360.774,276.418 360.774,280.605 355.562,279.571 355.562,275.385 					"/>
				</g>
				<g>
					<polygon fill="#268947" points="361.908,250.831 365.527,251.532 359.442,274.836 361.097,275.165 360.774,276.418 
						355.562,275.385 					"/>
				</g>
				<g>
					<polygon fill="#116431" points="361.097,275.165 361.097,279.352 360.774,280.605 360.774,276.418 					"/>
				</g>
				<g>
					<polygon fill="#116431" points="452.709,258.739 452.709,262.926 444.744,295.947 444.744,291.76 					"/>
				</g>
				<g>
					<polygon fill="#0B5E2C" points="444.744,291.76 444.744,295.947 361.097,279.352 361.097,275.165 					"/>
				</g>
				<g>
					<polygon fill="#268947" points="380.133,244.809 452.709,258.739 444.744,291.76 361.097,275.165 359.442,274.836 
						365.527,251.532 365.868,250.228 					"/>
				</g>
			</g>
		</g>
		<g>
			<g enable-background="new    ">
				<g>
					<polygon fill="#268947" points="353.07,285.222 356.049,285.833 349.623,310.783 346.626,310.154 					"/>
				</g>
				<g>
					<polygon fill="#116431" points="356.049,285.833 356.049,290.021 349.623,314.971 349.623,310.783 					"/>
				</g>
				<g>
					<polygon fill="#0B5E2C" points="349.623,310.783 349.623,314.971 346.626,314.341 346.626,310.154 					"/>
				</g>
				<g>
					<polygon fill="#0B5E2C" points="360.432,321.981 360.432,326.169 350.073,315.537 350.073,311.35 					"/>
				</g>
				<g>
					<polygon fill="#268947" points="356.445,286.301 441.846,303.755 433.935,337.504 360.432,321.981 350.073,311.35 					"/>
				</g>
				<g>
					<polygon fill="#116531" points="441.846,303.755 441.846,307.941 433.935,341.69 433.935,337.504 					"/>
				</g>
				<g>
					<polygon fill="#0B5E2C" points="433.935,337.504 433.935,341.69 360.432,326.169 360.432,321.981 					"/>
				</g>
			</g>
		</g>
		<g opacity="0.7">
			<polygon fill="#2A944D" stroke="#FFFFFF" stroke-width="0.5" stroke-miterlimit="10" points="413.458,295.367 329.073,278.179 
				322.594,303.033 332.761,313.574 405.386,328.858 			"/>
		</g>
		<g opacity="0.7">
			<polygon fill="#0F5E32" points="367.43,286.007 329.073,278.179 322.594,303.033 332.761,313.574 359.093,319.133 			"/>
		</g>
	</g>
	<g>
		<path fill-rule="evenodd" clip-rule="evenodd" fill="#032037" d="M322.256,90.466c14.896,3.183,46.434-1.757,58.922,25.074
			c12.779,27.458,8.596,50.348-9.587,81.513c-6.327,10.84-19.104,20.493-32.373,28.354c-25.334,14.997-60.413,8.611-60.413,8.611
			s-31.967-9.278-44.617-31.826c-7.471-13.316-13.371-30.585-11.788-42.84c1.601-28.603,10.344-53.021,37.956-70.332
			C276.732,75.483,307.708,87.355,322.256,90.466z"/>
		<g>
			<g>
				<path fill-rule="evenodd" clip-rule="evenodd" fill="#47637E" d="M353.705,135.884l-38.614-6.693l-31.506,113.982l14.988,2.95
					l32.596-12.868l17.468-27.111l16.865-59.162L353.705,135.884z M266.606,120.787l-16.987,5.906l-13.288,58.035l-0.2,30.173
					l21.793,23.22l14.832,2.92l31.716-113.69L266.606,120.787z"/>
			</g>
			<g>
				<path fill="none" stroke="#4B6D8C" stroke-miterlimit="10" d="M353.705,135.884l-38.614-6.693l-31.506,113.982l14.988,2.95
					l32.596-12.868l17.468-27.111l16.865-59.162L353.705,135.884z M266.606,120.787l-16.987,5.906l-13.288,58.035l-0.2,30.173
					l21.793,23.22l14.832,2.92l31.716-113.69L266.606,120.787z"/>
			</g>
		</g>
		<g>
			<g enable-background="new    ">
				<g>
					<polygon fill="#002149" points="256.023,188.28 256.023,192.467 249.723,181.269 249.723,177.082 					"/>
				</g>
				<g>
					<polygon fill="#07396A" points="265.338,122.508 302.472,129.051 284.571,193.699 256.023,188.28 249.723,177.082 					"/>
				</g>
				<g>
					<polygon fill="#00254E" points="302.472,129.051 302.472,133.238 284.571,197.886 284.571,193.699 					"/>
				</g>
				<g>
					<polygon fill="#002149" points="284.571,193.699 284.571,197.886 256.023,192.467 256.023,188.28 					"/>
				</g>
				<g>
					<polygon fill="#07396A" points="256.509,188.837 285.003,194.176 284.355,196.504 255.852,191.156 					"/>
				</g>
				<g>
					<polygon fill="#00254E" points="285.003,194.176 285.003,198.363 284.355,200.69 284.355,196.504 					"/>
				</g>
				<g>
					<polygon fill="#002149" points="284.355,196.504 284.355,200.69 255.852,195.343 255.852,191.156 					"/>
				</g>
			</g>
		</g>
		<g enable-background="new    ">
			<g>
				<g enable-background="new    ">
					<g>
						<polygon fill="#2A3D51" points="368.048,124.657 365.433,127.272 354.733,135.72 357.349,133.105 						"/>
					</g>
					<g>
						<polygon fill="#2A3D51" points="323.648,113.953 321.033,116.568 322.821,109.917 325.437,107.302 						"/>
					</g>
					<g>
						<path fill="#455E78" d="M292.635,103.823c6.095,0,12.656,0.411,19.477,1.268l-1.788,6.597l13.325,2.265l1.788-6.651
							c18.857,3.874,34.379,10.381,42.611,17.355l-10.699,8.448l-85.798-14.838l-5.116-10.983
							C273.084,105.035,282.172,103.823,292.635,103.823z"/>
					</g>
					<g>
						<polygon fill="#2A3D51" points="357.349,133.105 354.733,135.72 268.936,120.882 271.551,118.267 						"/>
					</g>
					<g>
						<polygon fill="#2A3D51" points="271.551,118.267 268.936,120.882 263.819,109.899 266.435,107.284 						"/>
					</g>
				</g>
			</g>
		</g>
		<g>
			<g enable-background="new    ">
				<g>
					<polygon fill="#00254E" points="350.136,137.304 350.136,141.491 335.07,197.133 335.07,192.946 					"/>
				</g>
				<g>
					<polygon fill="#07396A" points="312.237,130.806 350.136,137.304 335.07,192.946 323.136,200.9 294.12,195.535 					"/>
				</g>
				<g>
					<polygon fill="#002149" points="335.07,192.946 335.07,197.133 323.136,205.087 323.136,200.9 					"/>
				</g>
				<g>
					<polygon fill="#002149" points="323.136,200.9 323.136,205.087 294.12,199.722 294.12,195.535 					"/>
				</g>
				<g>
					<polygon fill="#07396A" points="294.615,196.029 323.541,201.449 322.893,203.803 293.949,198.366 					"/>
				</g>
				<g>
					<polygon fill="#00254E" points="323.541,201.449 323.541,205.635 322.893,207.99 322.893,203.803 					"/>
				</g>
				<g>
					<polygon fill="#002149" points="322.893,203.803 322.893,207.99 293.949,202.553 293.949,198.366 					"/>
				</g>
			</g>
		</g>
	</g>
	<g>
		<path fill-rule="evenodd" clip-rule="evenodd" fill="#032037" d="M211.938,451.309c-15.366-4.728-45.352,1.1-55.625-31.365
			c-10.028-31.67-4.983-56.536,14.779-89.092c6.729-11.085,18.442-20.795,31.412-28.636c24.655-14.907,58.349-8.37,58.349-8.37
			s31.661,9.722,44.886,33.723c8.061,14.637,16.634,30.633,15.338,44.509c-3.514,37.599-2.715,59.728-26.729,78.487
			C267.811,471.29,227.17,455.997,211.938,451.309z"/>
		<g>
			<g>
				<path fill-rule="evenodd" clip-rule="evenodd" fill="#47637E" d="M245.81,287.6l-32.536,12.825l-18.197,27.702l-19.606,63.059
					l11.423,12.832l39.74,9.262l34.141-122.579L245.81,287.6z M309.764,320.801l-22.938-24.702l-15.125-3.134l-33.92,122.912
					l40.569,9.455l18.477-6.11l13.351-65.635L309.764,320.801z"/>
			</g>
			<g>
				<path fill="none" stroke="#4B6D8C" stroke-miterlimit="10" d="M245.81,287.6l-32.536,12.825l-18.197,27.702l-19.606,63.059
					l11.423,12.832l39.74,9.262l34.141-122.579L245.81,287.6z M309.764,320.801l-22.938-24.702l-15.125-3.134l-33.92,122.912
					l40.569,9.455l18.477-6.11l13.351-65.635L309.764,320.801z"/>
			</g>
		</g>
		<g>
			<g>
				<g enable-background="new    ">
					<g>
						<polygon fill="#A0473C" points="258.57,335.446 288.225,341.854 287.55,344.361 257.895,337.935 						"/>
					</g>
					<g>
						<polygon fill="#752F27" points="288.225,341.854 288.225,346.041 287.55,348.549 287.55,344.361 						"/>
					</g>
					<g>
						<polygon fill="#6E2B23" points="287.55,344.361 287.55,348.549 257.895,342.122 257.895,337.935 						"/>
					</g>
					<g>
						<polygon fill="#A0473C" points="257.859,338.259 287.586,344.775 294.372,357.25 278.073,418.789 238.338,409.486 						"/>
					</g>
					<g>
						<polygon fill="#752F27" points="294.372,357.25 294.372,361.438 278.073,422.976 278.073,418.789 						"/>
					</g>
					<g>
						<polygon fill="#6E2B23" points="278.073,418.789 278.073,422.976 238.338,413.673 238.338,409.486 						"/>
					</g>
				</g>
			</g>
		</g>
		<g>
			<g enable-background="new    ">
				<g>
					<polygon fill="#6E2B23" points="217.656,329.221 217.656,333.408 217.057,333.809 217.057,329.622 					"/>
				</g>
				<g>
					<polygon fill="#6E2B23" points="246.942,335.494 246.942,339.682 217.656,333.408 217.656,329.221 					"/>
				</g>
				<g>
					<polygon fill="#752F27" points="246.942,335.494 246.942,339.682 246.779,340.258 246.779,336.07 					"/>
				</g>
				<g>
					<polygon fill="#A0473C" points="217.71,327.145 248.013,333.706 247.311,336.187 246.779,336.07 246.942,335.494 
						217.656,329.221 217.057,329.622 					"/>
				</g>
				<g>
					<polygon fill="#752F27" points="248.013,333.706 248.013,337.893 247.311,340.374 247.311,336.187 					"/>
				</g>
				<g>
					<polygon fill="#6E2B23" points="247.311,336.187 247.311,340.374 246.779,340.258 246.779,336.07 					"/>
				</g>
				<g>
					<polygon fill="#A0473C" points="217.656,329.221 246.942,335.494 246.779,336.07 226.971,406.443 187.992,397.5 
						205.461,337.382 217.057,329.622 					"/>
				</g>
				<g>
					<polygon fill="#752F27" points="246.779,336.07 246.779,340.258 226.971,410.63 226.971,406.443 					"/>
				</g>
				<g>
					<polygon fill="#6E2B23" points="226.971,406.443 226.971,410.63 187.992,401.688 187.992,397.5 					"/>
				</g>
			</g>
		</g>
		<g>
			<g enable-background="new    ">
				<g>
					<polygon fill="#2A3D51" points="232.659,431.29 232.659,433.384 218.592,430.056 218.592,427.962 					"/>
				</g>
				<g>
					<polygon fill="#2E4257" points="218.592,427.962 218.592,430.056 216.477,437.729 216.477,435.635 					"/>
				</g>
				<g enable-background="new    ">
					<defs>
						<path id="SVGID_9_" enable-background="new    " d="M216.477,435.635v2.094c-19.638-5.486-35.405-13.734-43.451-22.046v-2.094
							C181.071,421.9,196.839,430.148,216.477,435.635z"/>
					</defs>
					<clipPath id="SVGID_10_">
						<use xlink:href="#SVGID_9_"  overflow="visible"/>
					</clipPath>
					<g clip-path="url(#SVGID_10_)" enable-background="new    ">
						<path fill="#2B3F54" d="M216.477,435.635v2.094c-19.638-5.486-35.405-13.734-43.451-22.046v-2.094
							C181.071,421.9,196.839,430.148,216.477,435.635"/>
					</g>
				</g>
				<g>
					<path fill="#455D76" d="M184.419,404.514l90.045,21.011l5.598,13.294c-5.896,1.881-13.508,2.855-22.189,2.855
						c-8.306,0-17.59-0.892-27.301-2.738l2.088-7.646l-14.067-3.328l-2.115,7.673c-19.638-5.486-35.405-13.734-43.451-22.046
						L184.419,404.514z"/>
				</g>
				<g enable-background="new    ">
					<defs>
						<path id="SVGID_11_" enable-background="new    " d="M280.062,438.818v2.094c-5.896,1.881-13.508,2.855-22.189,2.855
							c-8.306,0-17.59-0.892-27.301-2.738v-2.094c9.711,1.847,18.995,2.738,27.301,2.738
							C266.554,441.674,274.165,440.699,280.062,438.818z"/>
					</defs>
					<clipPath id="SVGID_12_">
						<use xlink:href="#SVGID_11_"  overflow="visible"/>
					</clipPath>
					<g clip-path="url(#SVGID_12_)" enable-background="new    ">
						<path fill="#2B3F54" d="M280.062,438.818v2.094c-5.896,1.881-13.508,2.855-22.189,2.855c-8.306,0-17.59-0.892-27.301-2.738
							v-2.094c9.711,1.847,18.995,2.738,27.301,2.738C266.554,441.674,274.165,440.699,280.062,438.818"/>
					</g>
				</g>
			</g>
		</g>
		<polygon fill="#942023" points="231.774,388.898 226.869,406.476 209.623,402.481 214.575,384.977 		"/>
		<polygon opacity="0.7" fill="#AE4E42" stroke="#FFFFFF" stroke-width="0.5" stroke-miterlimit="10" points="241.624,385.725 
			260.968,315.231 290.532,321.573 297.293,333.878 281.129,394.781 		"/>
	</g>
	<g>
		<g>
			<path fill-rule="evenodd" clip-rule="evenodd" fill="#061A2E" stroke="#486A88" stroke-miterlimit="10" d="M263.523,241.919
				l-24.632-33.116l-13.527,6.971l24.485,33.231C253.573,245.679,258.303,243.23,263.523,241.919z"/>
			<path fill-rule="evenodd" clip-rule="evenodd" fill="#061A2E" stroke="#486A88" stroke-miterlimit="10" d="M242.703,273.697
				l-40.238,20.705l8.324,11.773l40.245-20.701C247.073,282.227,244.191,278.155,242.703,273.697z"/>
			<path fill-rule="evenodd" clip-rule="evenodd" fill="#061A2E" stroke="#486A88" stroke-miterlimit="10" d="M281.506,291.97
				l25.517,34.647l14.102-7.254l-25.67-34.519C291.664,288.219,286.832,290.686,281.506,291.97z"/>
			<path fill-rule="evenodd" clip-rule="evenodd" fill="#061A2E" stroke="#486A88" stroke-miterlimit="10" d="M293.394,247.615
				c4.117,3.111,7.188,7.085,8.89,11.494l40.159-20.657l-8.899-11.494L293.394,247.615z"/>
		</g>
		<g>
			<g enable-background="new    ">
				<g>
					<polygon fill="#5E5E5E" points="201.842,291.011 210.582,302.486 195.532,324.658 172.449,293.89 					"/>
				</g>
				<g>
					<polygon fill="#414242" points="210.582,302.486 210.792,308.501 195.743,330.673 195.532,324.658 					"/>
				</g>
				<g>
					<polygon fill="#3F4041" points="195.532,324.658 195.743,330.673 172.659,299.904 172.449,293.89 					"/>
				</g>
			</g>
		</g>
		<g>
			<g enable-background="new    ">
				<g>
					<polygon fill="#5E5E5E" points="348.065,203.906 373.184,233.605 342.881,236.75 333.566,225.573 					"/>
				</g>
				<g>
					<polygon fill="#3F4041" points="373.184,233.605 373.329,237.79 343.027,240.935 342.881,236.75 					"/>
				</g>
				<g>
					<polygon fill="#3F4041" points="342.881,236.75 343.027,240.935 333.713,229.757 333.566,225.573 					"/>
				</g>
			</g>
		</g>
		<g>
			<g enable-background="new    ">
				<g>
					<polygon fill="#33455D" points="235.996,182.194 239.162,206.086 225.86,213.521 200.752,201.916 					"/>
				</g>
				<g>
					<polygon fill="#263648" points="239.162,206.086 239.309,210.271 226.006,217.705 225.86,213.521 					"/>
				</g>
				<g>
					<polygon fill="#263648" points="225.86,213.521 226.006,217.705 200.898,206.1 200.752,201.916 					"/>
				</g>
			</g>
		</g>
		<g>
			<g enable-background="new    ">
				<g>
					<polygon fill="#5E5E5E" points="320.44,317.455 347.713,330.469 310.437,351.26 306.571,325.188 					"/>
				</g>
				<g>
					<polygon fill="#3F4041" points="347.713,330.469 347.858,334.653 310.582,355.443 310.437,351.26 					"/>
				</g>
				<g>
					<polygon fill="#3F4041" points="310.437,351.26 310.582,355.443 306.718,329.372 306.571,325.188 					"/>
				</g>
			</g>
		</g>
	</g>
	<g opacity="0.7">
		<g>
			<polygon fill="#2A944D" stroke="#FFFFFF" stroke-width="0.5" stroke-miterlimit="10" points="416.241,283.963 331.948,267.274 
				338.484,242.843 352.646,237.445 424.362,251.174 			"/>
		</g>
	</g>
	<g>
		<g enable-background="new    ">
			<g enable-background="new    ">
				<defs>
					<path id="SVGID_13_" enable-background="new    " d="M300.259,264.028l0.146,4.185c-0.369-10.567-9.435-19.845-22.32-21.916
						c-2.149-0.347-4.288-0.474-6.388-0.4c-12.406,0.434-23.358,7.877-25.977,18.491c-0.444,1.801-0.625,3.597-0.563,5.359
						l-0.146-4.184c-0.062-1.762,0.119-3.558,0.563-5.359c2.617-10.614,13.569-18.058,25.976-18.492
						c2.1-0.074,4.239,0.054,6.389,0.4C290.824,244.183,299.89,253.46,300.259,264.028z"/>
				</defs>
				<clipPath id="SVGID_14_">
					<use xlink:href="#SVGID_13_"  overflow="visible"/>
				</clipPath>
				<g clip-path="url(#SVGID_14_)" enable-background="new    ">
					<path fill="#3A5B7C" d="M300.259,264.028l0.146,4.185c-0.369-10.567-9.435-19.845-22.32-21.916
						c-2.149-0.347-4.288-0.474-6.388-0.4c-10.188,0.356-19.396,5.439-23.812,13.124l-0.146-4.185
						c4.416-7.684,13.624-12.768,23.812-13.124c2.1-0.074,4.239,0.054,6.389,0.4C290.824,244.183,299.89,253.46,300.259,264.028"/>
					<path fill="#3C5E7F" d="M247.739,254.836l0.146,4.185c-0.686,1.192-1.256,2.447-1.696,3.757l-0.146-4.185
						C246.483,257.284,247.054,256.028,247.739,254.836"/>
					<path fill="#3E6183" d="M246.043,258.593l0.146,4.185c-0.178,0.528-0.334,1.065-0.469,1.61
						c-0.143,0.578-0.258,1.156-0.347,1.731l-0.146-4.184c0.089-0.576,0.205-1.154,0.348-1.731
						C245.709,259.658,245.866,259.121,246.043,258.593"/>
					<path fill="#406486" d="M245.228,261.935l0.146,4.184c-0.172,1.114-0.245,2.223-0.225,3.32l-0.146-4.185
						C244.982,264.158,245.056,263.049,245.228,261.935"/>
					<path fill="#42678A" d="M245.003,265.254l0.146,4.185c0.002,0.103,0.005,0.205,0.008,0.308l-0.146-4.184
						C245.008,265.46,245.005,265.357,245.003,265.254"/>
				</g>
			</g>
			<g>
				<path fill="#5D95BF" d="M281.888,225.715c25.88,4.079,43.018,24.965,38.007,46.795c-4.291,18.705-23.384,31.836-45.109,32.595
					c-3.873,0.135-7.832-0.123-11.803-0.812c-25.967-4.517-42.397-25.769-36.981-47.334c4.603-18.309,23.55-31.156,45.009-31.906
					C274.584,224.927,278.229,225.138,281.888,225.715z M299.75,269.167c2.938-12.558-6.867-24.653-21.811-27.054
					c-2.149-0.347-4.289-0.474-6.389-0.4c-12.406,0.434-23.358,7.878-25.976,18.492c-3.077,12.464,6.49,24.685,21.466,27.237
					c2.255,0.384,4.498,0.527,6.698,0.45C286.236,287.455,297.23,279.915,299.75,269.167"/>
			</g>
			<g enable-background="new    ">
				<defs>
					<path id="SVGID_15_" enable-background="new    " d="M320.745,263.731c0.049,1.395,0.098,2.789,0.146,4.184
						c0.102,2.883-0.171,5.822-0.85,8.779c-4.292,18.705-23.384,31.836-45.11,32.595c-3.872,0.135-7.831-0.123-11.802-0.812
						c-22.152-3.854-37.364-19.886-37.993-37.902c0-0.063-0.006-0.146-0.008-0.209c-0.021-0.627-0.044-1.255-0.065-1.883
						c-0.024-0.698-0.049-1.395-0.073-2.092c0.629,18.016,15.841,34.049,37.993,37.902c3.971,0.689,7.93,0.947,11.803,0.812
						c21.726-0.759,40.818-13.89,45.109-32.595C320.573,269.553,320.846,266.614,320.745,263.731z"/>
				</defs>
				<clipPath id="SVGID_16_">
					<use xlink:href="#SVGID_15_"  overflow="visible"/>
				</clipPath>
				<g clip-path="url(#SVGID_16_)" enable-background="new    ">
					<path fill="#42678A" d="M320.745,263.73l0.146,4.185c0.007,0.175,0.012,0.351,0.015,0.527l-0.146-4.185
						C320.756,264.082,320.751,263.906,320.745,263.73"/>
					<path fill="#406486" d="M320.759,264.258l0.146,4.185c0.036,1.91-0.091,3.843-0.392,5.789l-0.146-4.184
						C320.668,268.102,320.796,266.168,320.759,264.258"/>
					<path fill="#3E6183" d="M320.367,270.047l0.146,4.184c-0.127,0.819-0.284,1.64-0.473,2.463
						c-0.264,1.146-0.582,2.272-0.953,3.375l-0.146-4.184c0.371-1.103,0.69-2.229,0.953-3.375
						C320.083,271.688,320.24,270.866,320.367,270.047"/>
					<path fill="#3C5E7F" d="M318.941,275.885l0.146,4.184c-0.764,2.266-1.749,4.438-2.934,6.5l-0.146-4.185
						C317.192,280.322,318.179,278.151,318.941,275.885"/>
					<path fill="#3A5B7C" d="M316.008,282.385l0.146,4.185c-7.646,13.312-23.564,22.103-41.224,22.72
						c-3.872,0.135-7.831-0.123-11.802-0.812c-22.152-3.854-37.364-19.886-37.993-37.903l-0.146-4.184
						c0.629,18.016,15.841,34.049,37.993,37.902c3.971,0.689,7.93,0.947,11.803,0.812
						C292.443,304.488,308.362,295.698,316.008,282.385"/>
				</g>
			</g>
		</g>
	</g>
	<g>
		<g>
			<path fill="#FFFFFF" d="M120.103,260.592l-1.507-0.388l0.71-2.566l-4.353-1.119l0.269-0.967l5.786-5.129l1.783,0.458l-1.664,6.01
				l1.299,0.334l-0.314,1.135l-1.299-0.333L120.103,260.592z M116.774,255.771l2.846,0.732l0.807-2.914
				c0.154-0.555,0.343-1.128,0.537-1.672l-0.055-0.014c-0.489,0.537-0.884,0.947-1.316,1.388l-2.812,2.455L116.774,255.771z"/>
			<path fill="#FFFFFF" d="M122.751,260.333c0.165-0.593,0.729-0.918,1.322-0.765c0.608,0.157,0.904,0.688,0.736,1.294
				c-0.164,0.594-0.682,0.916-1.317,0.752C122.856,261.452,122.595,260.901,122.751,260.333z"/>
			<path fill="#FFFFFF" d="M128.604,262.778l2.31-8.344l-0.027-0.007l-2.006,0.452l-0.056-1.189l2.675-0.57l1.354,0.349
				l-2.688,9.711L128.604,262.778z"/>
		</g>
		<g>
			<path fill="#FFFFFF" d="M135.975,219.781c1.117,0.509,1.879,1.658,1.5,3.025c-0.438,1.586-2.105,2.58-4.468,1.973
				c-1.078-0.277-1.963-0.822-2.374-1.26l0.731-1.042c0.309,0.329,1.049,0.864,1.905,1.085c1.479,0.38,2.337-0.367,2.576-1.23
				c0.347-1.251-0.626-2.123-1.856-2.439l-0.705-0.182l0.297-1.07l0.678,0.175c0.898,0.23,2.212,0.03,2.509-1.041
				c0.21-0.761-0.147-1.502-1.253-1.787c-0.733-0.188-1.54-0.051-2.012,0.104l-0.105-1.173c0.625-0.227,1.73-0.315,2.809-0.039
				c1.948,0.501,2.598,1.843,2.255,3.081c-0.274,0.993-1.178,1.686-2.479,1.794L135.975,219.781z"/>
		</g>
		<g>
			<path fill="#FFFFFF" d="M318.609,156.24l2.278-8.363l-0.027-0.005l-1.965,0.58l-0.052-1.166l2.619-0.74l1.325,0.25l-2.651,9.733
				L318.609,156.24z"/>
			<path fill="#FFFFFF" d="M323.798,156.298c0.162-0.595,0.715-0.953,1.296-0.842c0.596,0.113,0.885,0.616,0.719,1.224
				c-0.161,0.594-0.669,0.947-1.292,0.829C323.899,157.391,323.644,156.867,323.798,156.298z"/>
			<path fill="#FFFFFF" d="M329.521,158.306l2.278-8.363l-0.026-0.005l-1.965,0.58l-0.053-1.166l2.62-0.74l1.324,0.251l-2.651,9.733
				L329.521,158.306z"/>
		</g>
		<g>
			<path fill="#FFFFFF" d="M415.466,314.939l6.276,1.659l-0.269,0.94l-6.62,7.659l-1.641-0.434l6.527-7.339l0.008-0.025
				l-4.635-1.226L415.466,314.939z"/>
			<path fill="#FFFFFF" d="M420.705,325.805c0.168-0.592,0.734-0.912,1.328-0.756c0.606,0.16,0.899,0.694,0.727,1.299
				c-0.168,0.592-0.689,0.911-1.324,0.743C420.801,326.924,420.543,326.37,420.705,325.805z"/>
			<path fill="#FFFFFF" d="M426.539,328.288l2.374-8.326l-0.027-0.007l-2.009,0.438l-0.047-1.188l2.68-0.552l1.352,0.357
				l-2.764,9.69L426.539,328.288z"/>
		</g>
		<g>
			<path fill="#FFFFFF" d="M378.446,300.562l6.312,1.55l-0.249,0.944l-6.468,7.78l-1.65-0.405l6.381-7.457l0.007-0.025l-4.66-1.145
				L378.446,300.562z"/>
			<path fill="#FFFFFF" d="M383.9,311.339c0.157-0.595,0.717-0.926,1.312-0.779c0.611,0.15,0.914,0.679,0.754,1.287
				c-0.157,0.596-0.672,0.924-1.31,0.767C384.02,312.457,383.75,311.908,383.9,311.339z"/>
			<path fill="#FFFFFF" d="M393.25,314.572l-6.352-1.56l0.242-0.919l1.378-0.806c2.762-1.567,4.338-2.612,4.724-4.075
				c0.249-0.944-0.019-1.892-1.337-2.216c-0.804-0.197-1.631,0.026-2.212,0.27l-0.202-1.192c0.768-0.336,1.89-0.501,3.055-0.215
				c2.15,0.528,2.734,2.119,2.346,3.594c-0.471,1.785-2.167,2.953-4.435,4.216l-1.074,0.604l-0.007,0.026l4.202,1.031
				L393.25,314.572z"/>
		</g>
		<g>
			<path fill="#FFFFFF" d="M254.265,401.965c0.662-0.417,1.568-0.621,2.565-0.321c1.653,0.496,2.479,2.016,1.864,3.9
				c-0.582,1.783-2.316,3.012-4.353,2.4c-2.188-0.656-2.928-2.71-2.151-5.092c0.61-1.872,1.767-3.161,3.066-3.835
				c1.406-0.725,3.163-0.687,4.612-0.252l-0.369,1.176c-2.924-0.877-4.583,0.667-5.263,2.015L254.265,401.965z M257.08,405.158
				c0.407-1.248-0.007-2.281-1.087-2.605c-0.915-0.274-2.065,0.262-2.348,1.128c-0.463,1.512-0.146,2.795,1.058,3.156
				C255.741,407.147,256.669,406.419,257.08,405.158z"/>
			<path fill="#FFFFFF" d="M259.175,408.289c0.19-0.586,0.77-0.888,1.356-0.711c0.602,0.18,0.875,0.724,0.68,1.322
				c-0.191,0.586-0.725,0.887-1.354,0.698S258.992,408.85,259.175,408.289z"/>
			<path fill="#FFFFFF" d="M264.918,410.963l2.687-8.241l-0.027-0.008l-2.026,0.371l-0.002-1.189l2.701-0.462l1.339,0.401
				l-3.127,9.591L264.918,410.963z"/>
		</g>
		<g>
			<path fill="#FFFFFF" d="M259.645,372.661c0.661-0.417,1.567-0.621,2.564-0.321c1.653,0.496,2.479,2.016,1.864,3.901
				c-0.581,1.783-2.316,3.011-4.353,2.399c-2.188-0.656-2.928-2.71-2.151-5.091c0.61-1.873,1.767-3.162,3.066-3.836
				c1.406-0.725,3.164-0.687,4.613-0.251l-0.37,1.175c-2.924-0.877-4.582,0.667-5.262,2.016L259.645,372.661z M262.459,375.854
				c0.407-1.248-0.007-2.281-1.087-2.604c-0.915-0.274-2.065,0.261-2.348,1.127c-0.463,1.512-0.146,2.795,1.058,3.156
				C261.12,377.845,262.048,377.115,262.459,375.854z"/>
			<path fill="#FFFFFF" d="M264.554,378.985c0.191-0.586,0.77-0.888,1.357-0.711c0.601,0.18,0.874,0.724,0.679,1.322
				c-0.191,0.586-0.725,0.887-1.354,0.698S264.371,379.546,264.554,378.985z"/>
			<path fill="#FFFFFF" d="M273.713,382.684l-6.259-1.877l0.295-0.904l1.425-0.733c2.85-1.425,4.483-2.389,4.953-3.828
				c0.303-0.93,0.09-1.889-1.208-2.278c-0.793-0.237-1.633-0.056-2.227,0.157l-0.134-1.2c0.787-0.295,1.917-0.404,3.064-0.06
				c2.119,0.636,2.611,2.252,2.139,3.704c-0.573,1.758-2.335,2.837-4.674,3.981l-1.108,0.548l-0.009,0.025l4.141,1.242
				L273.713,382.684z"/>
		</g>
		<g>
			<path fill="#FFFFFF" d="M201.954,385.841l-0.398,1.223l-3.607-1.082l-1.085,2.177c0.21,0.049,0.409,0.081,0.696,0.167
				c1.872,0.562,3.152,2.064,2.513,4.025c-0.603,1.847-2.588,2.831-4.829,2.159c-1.012-0.304-1.843-0.832-2.231-1.257l0.722-1.014
				c0.339,0.339,1.004,0.833,1.837,1.083c1.162,0.349,2.441-0.079,2.848-1.327c0.403-1.235-0.245-2.283-2.077-2.833
				c-0.519-0.155-0.909-0.245-1.268-0.296l2.152-4.444L201.954,385.841z"/>
			<path fill="#FFFFFF" d="M201.047,395.146c0.19-0.586,0.77-0.888,1.357-0.711c0.602,0.18,0.874,0.724,0.679,1.322
				c-0.191,0.586-0.725,0.888-1.354,0.698C201.102,396.267,200.864,395.706,201.047,395.146z"/>
			<path fill="#FFFFFF" d="M206.79,397.819l2.687-8.24l-0.026-0.009l-2.027,0.371l-0.002-1.189l2.701-0.462l1.34,0.401l-3.127,9.591
				L206.79,397.819z"/>
		</g>
		<g>
			<path fill="#FFFFFF" d="M275.401,146.784l-6.137-1.438l0.289-0.906l1.397-0.811c2.795-1.581,4.397-2.632,4.857-4.074
				c0.298-0.932,0.09-1.858-1.183-2.157c-0.778-0.182-1.601,0.051-2.184,0.298l-0.131-1.169c0.771-0.341,1.88-0.52,3.005-0.256
				c2.077,0.486,2.561,2.04,2.096,3.495c-0.562,1.761-2.29,2.934-4.583,4.207l-1.088,0.609l-0.008,0.025l4.06,0.952L275.401,146.784
				z"/>
			<path fill="#FFFFFF" d="M277.233,146.28c0.188-0.587,0.755-0.92,1.331-0.785c0.591,0.138,0.857,0.653,0.666,1.253
				c-0.188,0.588-0.71,0.918-1.327,0.773C277.287,147.377,277.054,146.842,277.233,146.28z"/>
			<path fill="#FFFFFF" d="M282.865,148.533l2.637-8.257l-0.026-0.007l-1.987,0.495l-0.003-1.167l2.649-0.627l1.312,0.308
				l-3.068,9.61L282.865,148.533z"/>
		</g>
		<g>
			<path fill="#FFFFFF" d="M426.32,273.92c-0.892-0.776-1.166-1.734-0.928-2.571c0.44-1.544,2.072-2.22,3.809-1.761
				c1.986,0.525,2.562,1.992,2.229,3.163c-0.235,0.824-0.953,1.575-2.238,1.816l-0.012,0.039c0.999,0.762,1.57,1.826,1.232,3.011
				c-0.48,1.686-2.237,2.438-4.196,1.921c-2.124-0.562-2.943-2.107-2.554-3.471c0.352-1.235,1.391-1.916,2.647-2.109L426.32,273.92z
				 M428.759,277.332c0.309-1.081-0.292-1.89-1.323-2.536c-1.099,0.055-1.863,0.656-2.109,1.518c-0.271,0.953,0.17,1.9,1.232,2.181
				C427.662,278.786,428.506,278.22,428.759,277.332z M426.936,271.66c-0.253,0.889,0.272,1.595,1.163,2.162
				c0.794-0.081,1.554-0.558,1.773-1.33c0.217-0.76,0.012-1.603-1.022-1.876C427.829,270.347,427.145,270.927,426.936,271.66z"/>
			<path fill="#FFFFFF" d="M431.225,279.77c0.169-0.592,0.735-0.913,1.328-0.756c0.607,0.16,0.899,0.694,0.727,1.299
				c-0.169,0.592-0.69,0.91-1.324,0.743C431.32,280.888,431.063,280.335,431.225,279.77z"/>
			<path fill="#FFFFFF" d="M437.06,282.253l2.374-8.326l-0.027-0.007l-2.01,0.438l-0.047-1.188l2.68-0.551l1.352,0.357l-2.763,9.69
				L437.06,282.253z"/>
		</g>
		<g>
			<path fill="#FFFFFF" d="M389.92,261.042c-0.907-0.761-1.202-1.715-0.98-2.556c0.409-1.553,2.026-2.258,3.774-1.829
				c1.998,0.491,2.604,1.949,2.293,3.125c-0.219,0.829-0.922,1.592-2.203,1.856l-0.011,0.039c1.016,0.745,1.609,1.8,1.296,2.991
				c-0.447,1.695-2.191,2.479-4.16,1.995c-2.136-0.524-2.988-2.057-2.627-3.428c0.328-1.242,1.354-1.941,2.607-2.156L389.92,261.042
				z M392.427,264.413c0.287-1.087-0.329-1.886-1.375-2.515c-1.098,0.075-1.85,0.689-2.078,1.557
				c-0.252,0.957,0.209,1.897,1.276,2.159C391.359,265.887,392.191,265.306,392.427,264.413z M390.488,258.771
				c-0.235,0.893,0.305,1.59,1.207,2.143c0.794-0.094,1.544-0.585,1.748-1.362c0.201-0.764-0.021-1.603-1.06-1.859
				C391.356,257.44,390.683,258.032,390.488,258.771z"/>
			<path fill="#FFFFFF" d="M394.938,266.807c0.156-0.595,0.717-0.926,1.312-0.779c0.611,0.15,0.914,0.679,0.754,1.287
				c-0.157,0.595-0.672,0.923-1.309,0.767C395.057,267.924,394.787,267.376,394.938,266.807z"/>
			<path fill="#FFFFFF" d="M404.288,270.04l-6.353-1.56l0.242-0.918l1.378-0.805c2.762-1.568,4.337-2.614,4.723-4.076
				c0.249-0.945-0.018-1.892-1.336-2.216c-0.804-0.197-1.631,0.026-2.212,0.27l-0.202-1.193c0.769-0.335,1.889-0.5,3.055-0.214
				c2.148,0.528,2.734,2.118,2.346,3.594c-0.472,1.785-2.167,2.953-4.436,4.215l-1.074,0.604l-0.006,0.025l4.203,1.032
				L404.288,270.04z"/>
		</g>
	</g>
	<g opacity="0.7">
		<polygon fill-rule="evenodd" clip-rule="evenodd" fill="#F29518" points="162.413,166.632 182.294,156.375 173.41,144.34 
			153.636,154.545 		"/>
		<polygon fill-rule="evenodd" clip-rule="evenodd" fill="#F29518" points="174.641,143.707 183.53,155.737 203.423,145.476 
			194.424,133.496 		"/>
	</g>
</g>
</svg>
