<?xml version="1.0" encoding="utf-8"?>
<!-- Generator: Adobe Illustrator 16.0.0, SVG Export Plug-In . SVG Version: 6.00 Build 0)  -->
<!DOCTYPE svg PUBLIC "-//W3C//DTD SVG 1.1//EN" "http://www.w3.org/Graphics/SVG/1.1/DTD/svg11.dtd">
<svg version="1.1" id="图层_1" xmlns="http://www.w3.org/2000/svg" xmlns:xlink="http://www.w3.org/1999/xlink" x="0px" y="0px"
	 width="200px" height="200px" viewBox="0 0 200 200" enable-background="new 0 0 200 200" xml:space="preserve">
<g>
	<polygon fill="#FF0000" points="93.309,41.893 98.31,97.428 99.454,97.428 104.451,41.893 	"/>
	<polygon fill="#FF0000" points="68.252,49.163 93.246,99.406 94.175,99.055 78.63,45.094 	"/>
	<polygon fill="#FF0000" points="119.795,45.094 104.25,99.055 105.18,99.406 130.172,49.162 	"/>
</g>
<g>
	<path fill="#FF0000" d="M95.374,112.125c-0.51-3.307-3.337-5.673-6.575-5.721l-15.28-25.487l-59.894,9.238L6.748,119.01
		c-3.255,0.902-5.394,4.114-4.866,7.535l3.586,23.246c0.569,3.688,4.02,6.217,7.708,5.648l0.134-0.021l1.121,7.268
		c0.4,2.596,3.822,3.6,7.758,2.991c3.937-0.606,6.896-2.595,6.496-5.19l-1.121-7.266l51.514-7.945l1.121,7.266
		c0.4,2.596,3.822,3.6,7.758,2.993c3.936-0.607,6.896-2.597,6.496-5.192l-1.121-7.266c3.677-0.578,6.196-4.023,5.628-7.704
		L95.374,112.125z M20.223,138.779c-3.692,0.568-7.147-1.961-7.717-5.653c-0.569-3.692,1.962-7.147,5.654-7.717
		c3.692-0.569,7.147,1.962,7.717,5.653C26.447,134.756,23.915,138.21,20.223,138.779z M17.25,117.339l4.404-18.478l46.833-7.224
		l9.767,16.292L17.25,117.339z M81.724,129.293c-3.692,0.568-7.147-1.961-7.716-5.652c-0.57-3.692,1.962-7.147,5.654-7.718
		c3.692-0.569,7.147,1.962,7.717,5.654C87.948,125.271,85.417,128.725,81.724,129.293z"/>
	<path fill="#FF0000" d="M193.169,119.011l-6.877-28.854l-59.896-9.238l-15.278,25.488c-3.238,0.047-6.065,2.412-6.575,5.72
		l-3.585,23.247c-0.565,3.682,1.95,7.126,5.627,7.704l-1.12,7.266c-0.4,2.597,2.561,4.585,6.495,5.192
		c3.938,0.605,7.358-0.396,7.759-2.993l1.121-7.267l51.514,7.945l-1.119,7.266c-0.4,2.598,2.559,4.586,6.496,5.191
		c3.936,0.607,7.356-0.396,7.758-2.992l1.121-7.267l0.133,0.021c3.688,0.568,7.139-1.959,7.708-5.647l3.586-23.246
		C198.562,123.125,196.425,119.913,193.169,119.011z M125.909,123.641c-0.57,3.691-4.025,6.223-7.718,5.652
		c-3.691-0.568-6.225-4.021-5.653-7.716c0.569-3.692,4.024-6.224,7.717-5.654C123.945,116.492,126.479,119.947,125.909,123.641z
		 M121.663,107.93l9.769-16.292l46.832,7.224l4.403,18.478L121.663,107.93z M187.41,133.126c-0.569,3.692-4.023,6.224-7.717,5.653
		s-6.225-4.023-5.654-7.717c0.57-3.692,4.023-6.224,7.717-5.653C185.449,125.979,187.979,129.434,187.41,133.126z"/>
</g>
</svg>
